<svg xmlns="http://www.w3.org/2000/svg" viewBox="0 0 243.000000 256.000000" fill="#3B82F6">
<g transform="translate(0.000000,256.000000) scale(0.100000,-0.100000)"
fill="#ffffffff" stroke="none">
<path d="M10 2544 c0 -13 44 -83 360 -574 170 -265 310 -486 310 -491 0 -5
-146 -9 -335 -9 l-335 0 0 -443 0 -443 285 -282 c309 -304 303 -300 403 -289
83 9 82 5 82 343 l0 294 108 0 109 0 203 -302 c112 -167 210 -311 218 -320 14
-17 51 -18 504 -18 274 0 488 4 488 9 0 5 -82 127 -181 272 -100 145 -226 330
-280 411 l-99 147 108 108 c112 113 151 170 207 300 70 162 88 392 46 568 -82
343 -368 616 -731 701 -67 15 -153 18 -772 21 -384 3 -698 1 -698 -3z m1512
-230 c224 -80 413 -271 486 -491 22 -67 26 -96 26 -203 1 -140 -19 -232 -73
-338 -79 -155 -246 -305 -407 -365 -160 -60 -159 -60 -581 -64 l-393 -4 0
-272 0 -271 -102 99 c-57 54 -140 134 -185 178 l-83 80 0 303 0 304 508 0
c549 0 602 5 686 54 56 33 112 96 142 160 19 41 24 67 24 136 -1 145 -58 250
-172 310 -51 28 -76 34 -141 38 -77 5 -79 4 -68 -16 18 -34 92 -144 131 -197
56 -74 67 -136 35 -205 -12 -28 -66 -63 -108 -71 -50 -10 -288 -12 -311 -3 -9
4 -32 29 -50 58 -108 164 -509 792 -513 803 -5 12 83 13 528 11 l534 -3 87
-31z m196 -1624 c23 -33 86 -124 139 -203 53 -78 116 -169 140 -202 24 -32 43
-63 43 -67 0 -4 -116 -8 -257 -8 l-258 1 -139 212 c-77 117 -141 218 -144 225
-2 8 12 12 48 12 70 0 242 36 310 65 30 12 60 23 65 24 6 0 29 -26 53 -59z"/>
</g>
</svg>
